<?xml version="1.0" encoding="utf-8"?>
<!-- Generator: Adobe Illustrator 22.1.0, SVG Export Plug-In . SVG Version: 6.00 Build 0)  -->
<svg version="1.1" id="Layer_1" xmlns="http://www.w3.org/2000/svg" xmlns:xlink="http://www.w3.org/1999/xlink" x="0px" y="0px"
	 viewBox="0 0 1179.4 450" style="enable-background:new 0 0 1179.4 450;" xml:space="preserve">
<style type="text/css">
	.st0{stroke:#000000;stroke-width:10;stroke-miterlimit:10;}
	.st1{fill:none;stroke:#000000;stroke-width:10;stroke-miterlimit:10;}
	.st2{fill:none;stroke:#000000;stroke-width:10;stroke-linecap:round;stroke-miterlimit:10;}
</style>
<path class="st0" d="M525.5,154c-18.1-10.5-140-81.3-125.5-115c5.7-13.3,30.3-15.1,49-16.5c41.7-3,74.3,11.6,81,14.5
	c59.6,26.1,125.4,28.2,257,32.5c0,0,125,4,154-26c1.2-1.2,7.3-8.1,14-7c0,0,7.5,1.2,12,13c4,10.4-43.7,85.1-144.5,127.5
	c-38.3,16.1-69.7,21.5-85,23.5c-38,5.1-59.6,7.8-82,0.5c-3.4-1.1-9.9-0.7-12.3-4.8c-5-8.9,10.4-32.3,31.8-40.3
	c11.1-4.1,13.9-0.4,23.5-4c19.9-7.4,30.1-26,24.8-44.2c-7.4-25.5-63.3-31.4-97.5-15.6c-18.9,8.7-25.5,14.2-33.8,34.8
	c-8.2,20.5-10.9,33.8-20.5,40.5C558.8,176.3,542.9,164.1,525.5,154z"/>
<path class="st1" d="M607.1,105.1c3.7-3.6,12.4-11,33.5-15c28.5-5.4,79.6-4.7,88,19c4,11.2-2.2,25.9-11,33.5
	c-9.7,8.5-17.3,3.6-32.5,9c-25.9,9.1-39.8,35.6-50,55c-8.1,15.5-8.2,21.1-13.5,33.5c-16.2,37.6-49.1,62.5-70,73.5
	c-56.2,29.5-86.1-10.2-129.5,18c-33.5,21.7-22.1,49.5-65,80c-4.7,3.3-54.8,38.3-78.5,19.5c-14.9-11.8-15.3-41.7-4-60.5
	c9.2-15.3,19.5-12.1,38-26.5c36.6-28.5,25-63.4,64.5-96c7.2-6,17.8-14.6,34-19c27.8-7.6,39.9,5.8,70.5,6.5
	c27.7,0.6,68.7-9.3,87.5-37c4.9-7.2,10.1-22.2,13.5-32.2c4.2-12.4,4.1-15.1,8.5-27.8C597.3,121.1,600.2,112,607.1,105.1z"/>
<path class="st2" d="M343.1,369.3c14.7-44.2,38.8-59.5,48.5-64.5c13.8-7.2,31.7-11,55-16c18.5-4,20.7-3.1,36-6.5
	c19.8-4.4,41.2-9.1,59.5-20c22-13.1,23.7-25.7,53.5-62c17-20.6,32.4-36,42.5-45.5"/>
</svg>
