<?xml version="1.0" encoding="utf-8"?>
<!-- Generator: Adobe Illustrator 22.1.0, SVG Export Plug-In . SVG Version: 6.00 Build 0)  -->
<svg version="1.1" id="Layer_1" xmlns="http://www.w3.org/2000/svg" xmlns:xlink="http://www.w3.org/1999/xlink" x="0px" y="0px"
	 viewBox="0 0 4160 3120" style="enable-background:new 0 0 4160 3120;" xml:space="preserve">
<style type="text/css">
	.st0{fill:none;stroke:#000000;stroke-width:3;stroke-miterlimit:10;}
	.st1{clip-path:url(#SVGID_2_);fill:none;stroke:#000000;stroke-width:5;stroke-miterlimit:10;}
	.st2{clip-path:url(#SVGID_2_);}
	
		.st3{clip-path:url(#SVGID_2_);fill:none;stroke:#000000;stroke-width:10;stroke-linecap:round;stroke-linejoin:round;stroke-miterlimit:10;}
	.st4{clip-path:url(#SVGID_2_);fill:none;stroke:#000000;stroke-width:10;stroke-miterlimit:10;}
	.st5{clip-path:url(#SVGID_2_);fill:none;stroke:#000000;stroke-width:10;stroke-linecap:round;stroke-miterlimit:10;}
	.st6{clip-path:url(#SVGID_2_);fill:none;stroke:#000000;stroke-width:3;stroke-miterlimit:10;}
	.st7{clip-path:url(#SVGID_2_);fill:none;stroke:#231F20;stroke-width:6;stroke-miterlimit:10;}
	.st8{clip-path:url(#SVGID_2_);fill:#231F20;}
	.st9{clip-path:url(#SVGID_2_);fill:none;stroke:#231F20;stroke-miterlimit:10;}
	
		.st10{clip-path:url(#SVGID_2_);fill:none;stroke:#231F20;stroke-width:20;stroke-linecap:round;stroke-linejoin:round;stroke-miterlimit:10;}
	.st11{fill:none;stroke:#000000;stroke-width:6;stroke-miterlimit:10;}
	.st12{fill:none;stroke:#000000;stroke-width:8;stroke-linecap:round;stroke-linejoin:round;stroke-miterlimit:10;}
	.st13{fill:none;stroke:#000000;stroke-width:10;stroke-linecap:round;stroke-linejoin:round;stroke-miterlimit:10;}
	.st14{fill:none;stroke:#000000;stroke-width:3;stroke-linecap:round;stroke-linejoin:round;stroke-miterlimit:10;}
</style>
<polygon class="st0" points="650,1170 774,1163 695,1067 "/>
<polygon class="st0" points="899,1160 827,1067 774,1163 "/>
<polygon class="st0" points="757,936 695,1067 761,1067 827,1067 "/>
<polygon points="761.3,1069.5 799.2,1110 737.1,1113.4 "/>
<path d="M761.6,1072.1l34.3,36.6l-56.2,3.1L761.6,1072.1z M761,1067l-26.5,48l68-3.7L761,1067z"/>
<g>
	<defs>
		<rect id="SVGID_1_" width="4160" height="3120"/>
	</defs>
	<clipPath id="SVGID_2_">
		<use xlink:href="#SVGID_1_"  style="overflow:visible;"/>
	</clipPath>
	<path class="st1" d="M313,1340c6.5-12.7,31.8-41.7,67.3-46.3c31.1-4,55.7,8.9,88.7,26.7c58.5,31.6,68.1,58.3,114,70.7
		c24,6.5,43.5,5.1,59.3,4c135.9-9.8,194.7-102.7,273.3-106c26.1-1.1,47.7,27.4,52.7,50c9.5,43.6-48.9,89.1-79.3,112.7
		c-139.2,108.2-302.2,105.9-346,104.7c-93.3-2.6-136.1-25.7-154-36.7c-22.4-13.8-79.8-49.1-89.3-113.3
		C295.2,1375.9,307.1,1354.6,313,1340z"/>
	<path class="st2" d="M438.4,931.5l57.8,127.7l0.1,0.2l0.1,0.2l56.5,86l-128.6,3.8l-143.5,4.8l65-91.9L438.4,931.5z M439,925.5
		l-95.5,135.1l-68.5,96.9l149.5-5l134-4L499,1058L439,925.5z"/>
	<path class="st2" d="M493,1061.1l-63.7,86.6l-79-84.2L493,1061.1z M499,1058l-155.5,2.6l86.1,91.7L499,1058z"/>
	<polygon class="st2" points="425.3,1061.9 461.4,1104.1 398.9,1114.9 	"/>
	<path class="st2" d="M425.7,1064.6l32.9,38.5l-57,9.8L425.7,1064.6z M425,1059.3l-28.8,57.6l68-11.7L425,1059.3z"/>
	<polyline class="st3" points="611,1218.3 563.7,1275 608.3,1279 	"/>
	<path class="st2" d="M388,1387c16.8-17.8,50.7-18.5,75-7c11.7,5.6,18.8,12.9,21.5,15.5c42.8,42.1,132.5,45.1,144,45.5
		c20.7,0.7,97-6.5,157-40c12.6-7.1,30.3-18.6,46.3-27.6c16-8.9,30.3-15.2,42.5-20.2c2.7-1.1,7.3-1.2,13.3,0.8
		c12.2,4,20.4,21.4,17,34.5c-3.4,13.2-18.3,19-25,23c-117,70-190.8,84.5-239.5,89c-57.4,5.3-98-0.2-117-3.5
		c0,0-85.3-14.6-125.5-58.5c-6.4-7-21-22.9-17-39C382,1393.4,385.6,1389.5,388,1387"/>
	<path class="st1" d="M388,1387c16.8-17.8,50.7-18.5,75-7c11.7,5.6,18.8,12.9,21.5,15.5c42.8,42.1,132.5,45.1,144,45.5
		c20.7,0.7,97-6.5,157-40c12.6-7.1,30.3-18.6,46.3-27.6c16-8.9,30.3-15.2,42.5-20.2c2.7-1.1,7.3-1.2,13.3,0.8
		c12.2,4,20.4,21.4,17,34.5c-3.4,13.2-18.3,19-25,23c-117,70-190.8,84.5-239.5,89c-57.4,5.3-98-0.2-117-3.5
		c0,0-85.3-14.6-125.5-58.5c-6.4-7-21-22.9-17-39C382,1393.4,385.6,1389.5,388,1387z"/>
	<ellipse class="st4" cx="1800.5" cy="1133.5" rx="21.5" ry="17.5"/>
	<circle class="st4" cx="1803.3" cy="1123.3" r="77.3"/>
	<ellipse class="st4" cx="1804.5" cy="1119" rx="135.5" ry="130"/>
	<circle class="st4" cx="1800" cy="1118" r="184"/>
	<circle class="st4" cx="2332.3" cy="1061.3" r="37.3"/>
	<ellipse class="st4" cx="2329" cy="1061.5" rx="92" ry="88.5"/>
	<ellipse class="st4" cx="2334" cy="1067.5" rx="150" ry="145.5"/>
	<ellipse class="st4" cx="2338.5" cy="1073" rx="204.5" ry="191"/>
	<path class="st4" d="M1982,1404.5c3.7-3.6,12.4-11,33.5-15c28.5-5.4,79.6-4.7,88,19c4,11.2-2.2,25.9-11,33.5
		c-9.7,8.5-17.3,3.6-32.5,9c-25.9,9.1-39.8,35.6-50,55c-8.1,15.5-8.2,21.1-13.5,33.5c-16.2,37.6-49.1,62.5-70,73.5
		c-56.2,29.5-86.1-10.2-129.5,18c-33.5,21.7-22.1,49.5-65,80c-4.7,3.3-54.8,38.3-78.5,19.5c-14.9-11.8-15.3-41.7-4-60.5
		c9.2-15.3,19.5-12.1,38-26.5c36.6-28.5,25-63.4,64.5-96c7.2-6,17.8-14.6,34-19c27.8-7.6,39.9,5.8,70.5,6.5
		c27.7,0.6,68.7-9.3,87.5-37c4.9-7.2,10.1-22.2,13.5-32.2c4.2-12.4,4.1-15.1,8.5-27.8C1972.2,1420.4,1975,1411.4,1982,1404.5z"/>
	<path class="st5" d="M1718.5,1672.5c14.7-44.2,38.8-59.5,48.5-64.5c13.8-7.2,31.7-11,55-16c18.5-4,20.7-3.1,36-6.5
		c19.8-4.4,41.2-9.1,59.5-20c22-13.1,23.7-25.7,53.5-62c17-20.6,32.4-36,42.5-45.5"/>
	<path class="st2" d="M1904.5,1452c-18.1-10.5-140-81.3-125.5-115c5.7-13.3,30.3-15.1,49-16.5c41.7-3,74.3,11.6,81,14.5
		c59.6,26.1,125.4,28.2,257,32.5c0,0,125,4,154-26c1.2-1.2,7.3-8.1,14-7c0,0,7.5,1.2,12,13c4,10.4-43.7,85.1-144.5,127.5
		c-38.3,16.1-69.7,21.5-85,23.5c-38,5.1-59.6,7.8-82,0.5c-3.4-1.1-9.9-0.7-12.3-4.8c-5-8.9,10.4-32.3,31.8-40.3
		c11.1-4.1,13.9-0.4,23.5-4c19.9-7.4,30.1-26,24.8-44.2c-7.4-25.5-63.3-31.4-97.5-15.6c-18.9,8.7-25.5,14.2-33.8,34.8
		c-8.2,20.5-10.9,33.8-20.5,40.5C1937.8,1474.3,1921.9,1462.1,1904.5,1452"/>
	<path class="st4" d="M1904.5,1452c-18.1-10.5-140-81.3-125.5-115c5.7-13.3,30.3-15.1,49-16.5c41.7-3,74.3,11.6,81,14.5
		c59.6,26.1,125.4,28.2,257,32.5c0,0,125,4,154-26c1.2-1.2,7.3-8.1,14-7c0,0,7.5,1.2,12,13c4,10.4-43.7,85.1-144.5,127.5
		c-38.3,16.1-69.7,21.5-85,23.5c-38,5.1-59.6,7.8-82,0.5c-3.4-1.1-9.9-0.7-12.3-4.8c-5-8.9,10.4-32.3,31.8-40.3
		c11.1-4.1,13.9-0.4,23.5-4c19.9-7.4,30.1-26,24.8-44.2c-7.4-25.5-63.3-31.4-97.5-15.6c-18.9,8.7-25.5,14.2-33.8,34.8
		c-8.2,20.5-10.9,33.8-20.5,40.5C1937.8,1474.3,1921.9,1462.1,1904.5,1452z"/>
	<polyline class="st3" points="2080,1211.3 2053,1270.7 2087,1270.7 	"/>
	<path class="st4" d="M2697,1638c-9.6-26.4-32.2-24.9-43-53c-1.6-4.1-10.1-26.3,0-42c7-10.8,16.1-8.1,48-22
		c24.6-10.7,37.4-16.5,45-30c6-10.7,2.5-15.1,10-27c2.5-4,11.5-18,29-24c18.2-6.3,41.4-2.4,56,13c0.9,1,14.8,16,14,36
		c-0.3,7.6-2.4,7.5-3,15c-1.3,16.7,7.3,37.7,23,46c12,6.4,17.9,0,27,7c10.1,7.7,14.6,24.5,10,37c-5.9,15.9-21.7,11.2-31,28
		c-9.7,17.5-3.9,42.9,5,58c3.5,6,5,6,7,11c5.7,14.4,1.8,34.6-10,46c-16.7,16.2-47,13-65,2c-18-11-18-26.1-38-32
		c-2.3-0.7-19-5.4-28,3c-5.4,5-5.6,12.5-6,17c-1.9,22.6-13.9,50.4-29,61c-16.6,11.7-48.7,10.8-65-9c-15.9-19.4-10-48.6,2-64
		c12.6-16.2,27-11.1,38-28C2702.4,1672.6,2702.3,1652.7,2697,1638z"/>
	<path class="st4" d="M3017,1599c-16.3-19.5-18.4-31.8-19-36c-0.2-1.4-3.5-28.9,11-38c11.4-7.2,21.2,4.8,39-1
		c12.5-4.1,26.6-16.1,27-29c0.5-14.8-17.5-18.1-25-43c-1.7-5.8-4.5-14.9-2-25c5.8-23.8,36.5-37.7,61-38c4.4-0.1,31.4-0.4,42,16
		c5.1,7.9,1.5,12.1,7,26c2.9,7.4,8.9,22.5,22,29c6,3,8.9,1.9,45,1c17.7-0.4,21.9-0.3,26,3c8.3,6.6,10.9,21.5,6,32
		c-5.7,12-17,8.9-25,21c-9.1,13.8-6.9,36.6,4,45c8,6.2,15.3,0.4,23,7c9,7.7,9,24,5,35c-7.6,20.8-31,25.8-32,26c-14.8,2.9-18-5-33-3
		c-18,2.4-37.1,17.1-40,34c-2.2,13.1,6.9,18.1,4,31c-3,13.6-16.2,21.4-24,26c-27.1,16-74.2,23.9-89,2c-10.5-15.5-1-40.6,0-43
		c6.9-17.4,16.9-17.9,17-28C3067.2,1633.5,3043.4,1630.6,3017,1599z"/>
	<polygon class="st2" points="2740,1591 2779.1,1561.4 2829,1616.4 2775,1642 	"/>
	<polygon class="st4" points="2740,1591 2779.1,1561.4 2829,1616.4 2775,1642 	"/>
	<polygon class="st2" points="3099,1565.3 3138,1518 3176,1554 3142,1587 	"/>
	<polygon class="st4" points="3099,1565.3 3138,1518 3176,1554 3142,1587 	"/>
	<polyline class="st3" points="2959,1780 2931,1832 2972,1827 	"/>
	<path class="st5" d="M2556,1894c3.4,4.2,8.9,9.6,16,10c7.4,0.4,9.4-5,18-7c14.8-3.5,22,9.3,32,5c9.9-4.3,7.9-18.9,17-21
		c7.2-1.6,11,6.9,18,5c8.3-2.3,7.3-15.5,16-18c6.7-1.9,11.1,4.7,16,2c5.7-3.2,2.2-13.8,8-17c4.8-2.7,9.7,3,15,1
		c3.7-1.4,7.3-6.7,8-22"/>
	<path class="st5" d="M3251,1736c-3.6,7.6-6.8,8.9-8,15c-2.4,12.2,6.1,28.6,17,31c10.3,2.2,13.6-10,29-11c12.6-0.8,27.5,6.2,32,17
		c3.5,8.4-0.6,16.1,3,18c4.8,2.5,12.6-11,21-9c7.7,1.8,5.9,14.2,14,18c11.1,5.2,22.1-14.4,40-13c16.8,1.4,22.4,19.8,31,18
		c6.8-1.4,8.3,0.9,12.6-35"/>
	<path class="st5" d="M3306.3,1819c-10.4-8.6-17-14-23.3-12c-8.5,2.7-5.3,15.2-14.7,22c-13.6,9.8-31.8-8.5-48.7,0.7
		c-12.3,6.7-6.9,18.8-19.3,26.7c-17.8,11.2-37.1-8.6-54.7,2.7c-12.3,7.9-7.3,20.4-19.3,26.7c-15.6,8.1-29.1-10.2-48-3.3
		c-15.6,5.7-11.9,20.1-27.3,26.7c-19.2,8.1-31.5-11.5-59.3-6.7c-17.9,3.1-15.7,11.8-34,16c-29.2,6.8-40.3-14.1-68.7-8.7
		c-22.8,4.3-20.6,18.7-43.3,23.3c-21.9,4.4-29-7.8-69.3-16c-8.4-1.7-58.9-11.5-66,3.3c-3.8,8,8.7,15.8,6,32
		c-1.8,10.4-7.9,12.6-16,25.3c-5.6,8.8-18.9,29.4-13.3,48c5.7,19.2,30.3,32,50,31.3c14.5-0.5,17.2-8,31.3-6.7
		c18.1,1.7,19.9,14.6,36,16.7c19.1,2.4,23.8-14.8,46-16c22.2-1.2,24.7,15.6,46,16c29.6,0.5,38.1-31.8,64-29.3
		c22.5,2.2,26.1,27.6,45.3,26.7c21.9-1,24.5-34.2,52-39.3c15-2.8,17.1,6.5,46,8.7c18.1,1.3,36.8,2.7,46.7-8
		c13.8-14.9,0.1-41.9,9.3-46.7c10.8-5.6,31.6,30.4,48,25.3c17.5-5.4,9.7-51.1,32.7-60.7c12.2-5.1,20,5.5,30-0.7
		c16.5-10.2,2.7-43.6,19.3-54.7c11.6-7.7,24.7,4.3,36.7-5.3c10.1-8.1,9.4-23.5,9.3-25.3C3334.8,1842.6,3323.7,1833.4,3306.3,1819z"
		/>
	<path class="st2" d="M2732,1964c2.9-4.5,5.2-7.8,9-8.5c8.1-1.4,11.9,11.4,24.5,15.5c10.5,3.4,13.3-3.7,27.5-3.5
		c20,0.3,21.4,14.5,42,16c16.3,1.2,21.4-7.1,34-2c9.5,3.8,13.5,11.3,18.5,9.5c6-2.2,4.3-14.4,9-15.5c5.9-1.4,10.9,17.2,20.5,17.5
		c9.2,0.3,12.1-16.3,23.5-17c8.1-0.5,9.4,7.6,18,8.5c16.6,1.7,28.2-26.9,39-23.5c6.9,2.2,7.1,15.5,12.5,15.5c5,0,6.4-11.4,14-12.5
		c4.6-0.7,7.4,3.2,10,1.5c3.4-2.2-0.3-9.5,3-12.5c3.7-3.3,10.6,3.8,18.5,2.5c11.8-1.9,9.7-20,22-26c16.7-8.2,40,15.8,52,6
		c4.3-3.5,5.1-9.6,10-10c5-0.4,7.9,5.8,12.5,4.5c2.7-0.8,2.5-3.2,7-5.5c2.8-1.4,3.4-0.8,6-2c5.1-2.4,4.9-6.1,8.5-8
		c4.8-2.6,7.9,2.6,15.5,2c8.8-0.6,9.2-8,19.5-10c1.1-0.2,0.7,0,16,0.5c9.9,0.4,12.5,0.4,14-1.5c2.8-3.5-2.2-8.6,0.5-12.5
		c2.8-4.1,9.7-0.2,18-4.5c6.8-3.5,7.9-9.1,9.5-8.5c3.8,1.4-1.1,35.8-13,38c-5.7,1-10.5-5.6-15-3c-4.3,2.5-2.8,10.2-6,11
		c-3.6,0.9-7.4-8.4-10.5-7.5c-3.8,1-2.1,16-5,16.5c-2.2,0.4-3.6-7.6-7.5-8c-5.5-0.6-7.5,14.8-17,17c-6.3,1.4-9.5-4.3-15.5-2
		c-5.9,2.3-6.8,9.4-10,9c-3.8-0.4-4.7-10.6-7-10.5c-2.2,0.1-1,9.3-6.5,13.5c-3.7,2.8-6.7,0.6-12.5,2c-8.8,2.2-9.1,9.1-18,15.5
		c-10.1,7.3-14.4,1.7-26.5,8.5c-12,6.7-9,12.9-20,18.5c-11.1,5.6-28.1,6.4-35.5-1.5c-2.6-2.8-3.4-5.9-6.5-6.5
		c-4.3-0.8-5.9,4.4-12.5,7.5c-8.8,4.1-13.9-1.3-23.5,2.5c-5.5,2.2-8.5,5.9-10.5,8c-16.4,17.4-65.9,34.4-90.5,18
		c-5-3.4-8.1-7.4-15.5-9c-11.1-2.3-15.2,4.5-25,2.5c-12.7-2.6-14.7-15.9-22.5-15c-8.7,1.1-7.7,18.1-18.5,21.5
		c-10.7,3.4-17.4-11.5-32-8.5c-8.4,1.7-11.5,7.7-19,6c-3.7-0.8-5.7-2.9-12-4c-4.3-0.7-6-0.2-8.5-0.5c-10-1.1-16.6-13.7-17.5-15.5
		C2718.1,1986.4,2729.6,1967.7,2732,1964"/>
	<path class="st4" d="M2732,1964c2.9-4.5,5.2-7.8,9-8.5c8.1-1.4,11.9,11.4,24.5,15.5c10.5,3.4,13.3-3.7,27.5-3.5
		c20,0.3,21.4,14.5,42,16c16.3,1.2,21.4-7.1,34-2c9.5,3.8,13.5,11.3,18.5,9.5c6-2.2,4.3-14.4,9-15.5c5.9-1.4,10.9,17.2,20.5,17.5
		c9.2,0.3,12.1-16.3,23.5-17c8.1-0.5,9.4,7.6,18,8.5c16.6,1.7,28.2-26.9,39-23.5c6.9,2.2,7.1,15.5,12.5,15.5c5,0,6.4-11.4,14-12.5
		c4.6-0.7,7.4,3.2,10,1.5c3.4-2.2-0.3-9.5,3-12.5c3.7-3.3,10.6,3.8,18.5,2.5c11.8-1.9,9.7-20,22-26c16.7-8.2,40,15.8,52,6
		c4.3-3.5,5.1-9.6,10-10c5-0.4,7.9,5.8,12.5,4.5c2.7-0.8,2.5-3.2,7-5.5c2.8-1.4,3.4-0.8,6-2c5.1-2.4,4.9-6.1,8.5-8
		c4.8-2.6,7.9,2.6,15.5,2c8.8-0.6,9.2-8,19.5-10c1.1-0.2,0.7,0,16,0.5c9.9,0.4,12.5,0.4,14-1.5c2.8-3.5-2.2-8.6,0.5-12.5
		c2.8-4.1,9.7-0.2,18-4.5c6.8-3.5,7.9-9.1,9.5-8.5c3.8,1.4-1.1,35.8-13,38c-5.7,1-10.5-5.6-15-3c-4.3,2.5-2.8,10.2-6,11
		c-3.6,0.9-7.4-8.4-10.5-7.5c-3.8,1-2.1,16-5,16.5c-2.2,0.4-3.6-7.6-7.5-8c-5.5-0.6-7.5,14.8-17,17c-6.3,1.4-9.5-4.3-15.5-2
		c-5.9,2.3-6.8,9.4-10,9c-3.8-0.4-4.7-10.6-7-10.5c-2.2,0.1-1,9.3-6.5,13.5c-3.7,2.8-6.7,0.6-12.5,2c-8.8,2.2-9.1,9.1-18,15.5
		c-10.1,7.3-14.4,1.7-26.5,8.5c-12,6.7-9,12.9-20,18.5c-11.1,5.6-28.1,6.4-35.5-1.5c-2.6-2.8-3.4-5.9-6.5-6.5
		c-4.3-0.8-5.9,4.4-12.5,7.5c-8.8,4.1-13.9-1.3-23.5,2.5c-5.5,2.2-8.5,5.9-10.5,8c-16.4,17.4-65.9,34.4-90.5,18
		c-5-3.4-8.1-7.4-15.5-9c-11.1-2.3-15.2,4.5-25,2.5c-12.7-2.6-14.7-15.9-22.5-15c-8.7,1.1-7.7,18.1-18.5,21.5
		c-10.7,3.4-17.4-11.5-32-8.5c-8.4,1.7-11.5,7.7-19,6c-3.7-0.8-5.7-2.9-12-4c-4.3-0.7-6-0.2-8.5-0.5c-10-1.1-16.6-13.7-17.5-15.5
		C2718.1,1986.4,2729.6,1967.7,2732,1964z"/>
	<path class="st6" d="M3197.5,865.8l66.5,3.7l-5-63.5h60.5v63.5l43-8V811h49.5v53.5l73.5,0.5c0,0,1.3,29,0,29.5S3407,900,3407,900
		l5-35.5l-49.5-3v25l-43-0.5v-16.5H3264l2,19.5l-66.5,1.5l-1.5,43h69.5L3266,889l53.5-3l-0.5,43.5l-51.5,4l5,56.5h52l-5.5-60.5l51,4
		l1,52l-46.5,4.5l-8,59h59l-4.5-63.5h52l-4-50l-49-2l-7.5-47L3407,900l12,35.5l67.1-2.5v55l-63.1-2.5l0.8,32l0.7,28.5l61.6,0.5V988
		l-0.6-93.5l3-88.5l-76.5,5h-49.5l-43-5H3259h-66.5l7,84.5l-1.5,43l11,53.5l1.5,52.5l63.5,3l42.5,6.5l8-59h-52l1.5,52.5l-1.5-52.5
		l-63.5-3l-11-53.5l1.5-43L3197.5,865.8z"/>
	<line class="st6" x1="3375.5" y1="1049" x2="3424.5" y2="1046"/>
	<polygon class="st2" points="3369.9,930.8 3421.5,932.9 3425.7,985.5 3371,985.5 	"/>
	<polygon class="st6" points="3369.9,930.8 3421.5,932.9 3425.7,985.5 3371,985.5 	"/>
	<polygon class="st2" points="3362.1,881.3 3369.9,930.8 3316.3,926.5 3316.8,880.8 	"/>
	<polygon class="st6" points="3362.1,881.3 3369.9,930.8 3316.3,926.5 3316.8,880.8 	"/>
	<polygon class="st2" points="3412,864.5 3407,900 3362.5,886.5 3362.5,861.5 	"/>
	<polygon class="st6" points="3412,864.5 3407,900 3362.5,886.5 3362.5,861.5 	"/>
	<polygon class="st2" points="3319.5,869.5 3264,869.5 3266,889 3319.5,886 	"/>
	<polygon class="st6" points="3319.5,869.5 3264,869.5 3266,889 3319.5,886 	"/>
	<polygon class="st2" points="3319,929.5 3324.5,990 3272.5,990 3267.5,933.5 	"/>
	<polygon class="st6" points="3319,929.5 3324.5,990 3272.5,990 3267.5,933.5 	"/>
	<polygon class="st2" points="3874.3,930.8 3879.7,974.5 3833,976 3827.2,934 	"/>
	<polyline class="st6" points="3874.3,930.8 3879.7,974.5 3833,976 3827.2,934 3874.3,930.8 	"/>
	<polygon class="st2" points="3863,891.5 3823,896 3823,856.8 3865.3,856.8 	"/>
	<polygon class="st6" points="3863,891.5 3823,896 3823,856.8 3865.3,856.8 	"/>
	<polygon class="st2" points="3781.5,898.8 3780,853.3 3723.5,853.3 3721.8,904 	"/>
	<polygon class="st6" points="3781.5,898.8 3780,853.3 3723.5,853.3 3721.8,904 	"/>
	<polygon class="st2" points="3727.5,937.5 3738.3,978.8 3794,976 3790,937.5 	"/>
	<polygon class="st6" points="3727.5,937.5 3738.3,978.8 3794,976 3790,937.5 	"/>
	<polygon class="st2" points="3781.5,898.8 3790,937.5 3827.3,934 3823,896 	"/>
	<polygon class="st6" points="3781.5,898.8 3790,937.5 3827.3,934 3823,896 	"/>
	<polygon class="st6" points="3925.3,796.3 3866.7,799 3821.3,806 3779.7,806 3719.3,816 3667.7,812.3 3665.7,855 3723.5,855 
		3719.3,816 3779.7,806 3779.7,853.3 3823,856.8 3821.3,806 3866.7,799 3866.7,856.8 3934,848.7 3939,888.7 3863,888.7 
		3874.3,930.8 3941.7,916.8 3944,973.3 3881.1,976 3886.7,1043.3 3965.3,1033.3 3944,973.3 3881.1,976 3833,976 3844.1,1045.3 
		3886.7,1043.3 3844.1,1045.3 3800,1049 3794,976 3833,976 3794,976 3738.3,976 3746.7,1050.7 3800,1049 3746.7,1050.7 
		3685.3,1056.3 3681.3,987.7 3738.3,976 3727.5,937.5 3679,939.7 3681.3,987.7 3679,939.7 3673.3,904 3721.8,904 3727.5,937.5 
		3721.8,904 3673.3,904 3665.7,855 3667.7,812.3 3719.3,816 3779.7,806 3821.3,806 3866.7,799 	"/>
	<polyline class="st6" points="3934,848.7 3925.3,796.3 3939,888.7 3941.7,916.7 	"/>
	<polyline class="st3" points="3592,1110 3555,1190 3649,1169 	"/>
	<polygon class="st2" points="3242.6,1239 3383,1230 3363,1292 3524,1261 3501,1315 3607,1272.5 3590,1331 3727.5,1252 3721,1324 
		3865,1230 3853.5,1300 4001,1206 4001,1261 4105,1196 4105,1335 4092.4,1367.3 4061,1358 4025,1339.7 3957,1321.8 3923.8,1312.7 
		3853.5,1300 3815.5,1314 3804.4,1340 3816.3,1362.7 3827.3,1372 3887.2,1382.7 3926.5,1395.6 3948,1423.7 3933,1437.1 3879.8,1485 
		3873,1421 3727.5,1492 3723,1437.1 3623,1499 3614,1437.1 3505,1478 3507,1431 3324.5,1437.1 3370,1375 3192.5,1328 3308,1310 	"/>
	<polygon class="st5" points="3242.6,1239 3383,1230 3363,1292 3524,1261 3501,1315 3607,1272.5 3590,1331 3727.5,1252 3721,1324 
		3865,1230 3853.5,1300 4001,1206 4001,1261 4105,1196 4105,1335 4092.4,1367.3 4061,1358 4025,1339.7 3957,1321.8 3923.8,1312.7 
		3853.5,1300 3815.5,1314 3804.4,1340 3816.3,1362.7 3827.3,1372 3887.2,1382.7 3926.5,1395.6 3948,1423.7 3933,1437.1 3879.8,1485 
		3873,1421 3727.5,1492 3723,1437.1 3623,1499 3614,1437.1 3505,1478 3507,1431 3324.5,1437.1 3370,1375 3192.5,1328 3308,1310 	"/>
	<path class="st3" d="M3995.7,1426.3c6.1,4.9,8,9.4,8.7,12.7c2.1,10.5-7.4,16.7-8,32c-0.3,6.5,1.2,10.8,2,14
		c2.6,11.2,0.9,30.1-18.7,64"/>
	<path class="st5" d="M3922,1632c-5.8-11.6-12.1-28.8-5-42c4.7-8.7,13.1-11.9,17-14c37.7-20.4,46.4-156.4-7-187
		c-26-14.9-50.2,4.5-92-19c-8.8-4.9-27.1-15.2-27-29c0.1-16.4,26.1-29.1,42-34c26.9-8.3,47.4-1.6,93,11
		c100.2,27.8,106.9,24.7,119,39c21.7,25.6,20.1,58.8,18,102c-1.5,30.9-4,81.4-40,126c-11.4,14.2-37.8,46.8-80,51
		C3944.1,1637.6,3930.8,1634.7,3922,1632z"/>
	<polygon class="st7" points="1410.7,2238.7 1324.4,2182.1 1243.3,2252.5 1266.8,2134.5 1205.8,2060 1276.3,2065.5 1310.8,1996 
		1354,2059.5 1429.2,2064.6 1379.6,2115.2 	"/>
	<polygon class="st7" points="1636.3,2220 1643.8,2147 1588.3,2076.5 1646.3,2062.5 1677.8,2002.2 1709.9,2054.2 1785.8,2039.5 
		1731.8,2122 1753.3,2207 1693.6,2166.9 	"/>
	<polygon class="st8" points="1276.3,2065.5 1354,2059.5 1379.6,2115.2 1324.4,2182.1 1266.8,2134.5 	"/>
	<polygon class="st9" points="1276.3,2065.5 1354,2059.5 1379.6,2115.2 1324.4,2182.1 1266.8,2134.5 	"/>
	<polygon class="st8" points="1646.3,2062.5 1709.9,2054.2 1731.8,2122 1693.6,2166.9 1643.8,2147 	"/>
	<polygon class="st9" points="1646.3,2062.5 1709.9,2054.2 1731.8,2122 1693.6,2166.9 1643.8,2147 	"/>
	<polyline class="st10" points="1507,2268.8 1473.3,2310 1520.3,2329 	"/>
	<polyline class="st10" points="1909.3,2442 1828.3,2451 1800.3,2353 1716.3,2363 1716.3,2463 1621.3,2484 1608.3,2395 1504.3,2408 
		1509.3,2484 1397.3,2505 1393.3,2429 1303.3,2429 1303.3,2530 1196.3,2530 1205.8,2449 1158.3,2470 	"/>
</g>
<g id="Layer_2">
	<polygon class="st11" points="2474.9,2200.9 2559.9,2270.2 2538.8,2389.1 2436.7,2468.8 2279.2,2468.8 2217.6,2346.8 
		2310.1,2215.3 	"/>
	<g>
		<path d="M2409.7,2211.8l127.7,49.9l-52,160.4l-162.1,40l-77-73.7l34.5-120.1L2409.7,2211.8 M2409.5,2205.3l-133.8,58.7
			l-36.2,126.2l82,78.5l168.5-41.6l54.8-168.9L2409.5,2205.3L2409.5,2205.3z"/>
	</g>
	<g>
		<path d="M2470.9,2237.1l39,105.3l-113.5,100.2l-138.6-87.4l84.9-113.3L2470.9,2237.1 M2475.1,2230.9l-135.3,5l-90.6,120.8
			l147.9,93.3l119.9-105.9L2475.1,2230.9L2475.1,2230.9z"/>
	</g>
	<g>
		<path d="M2488.2,2294.3l-27.2,89.5H2312l-5.1-89.5H2488.2 M2496.3,2288.3h-195.7l5.8,101.5h159.1L2496.3,2288.3L2496.3,2288.3z"/>
	</g>
	<g>
		<polygon points="2398.3,2292.2 2467.8,2355 2313.8,2363.6 		"/>
		<path d="M2398.3,2296.2l62.2,56.2l-137.9,7.7L2398.3,2296.2 M2398.4,2288.3l-93.4,78.8l170.1-9.5L2398.4,2288.3L2398.4,2288.3z"/>
	</g>
	<g>
		<path d="M2868.1,2207l79.2,54.8l16.7,75l-40.2,91.6l-143.2,60.8l-145.8-72.3l22-108.8l72.5-92.3L2868.1,2207 M2869.8,2200.9
			l-143.5,9.1l-75.1,95.6l-23.2,114.7l152.4,75.5l147.9-62.8l42-95.6l-17.7-79.2L2869.8,2200.9L2869.8,2200.9z"/>
	</g>
	<g>
		<path d="M2806.2,2211.6l145.7,75.8l-13.4,106.4l-100.1,70.5l-134.9-14l-56.6-89.9l45.4-96.7L2806.2,2211.6 M2806.4,2204.9
			l-118.7,54.2l-47.7,101.7l60,95.1l140,14.6l104.1-73.4l14.3-113.2L2806.4,2204.9L2806.4,2204.9z"/>
	</g>
	<g>
		<path d="M2743.2,2241l137.2,10l59.7,89.9l-156.1,117l-103-45.1l-11-100.1L2743.2,2241 M2741,2234.8l-77.3,75.6l11.7,106.5
			l109.4,47.8l163.5-122.5l-64.5-97.1L2741,2234.8L2741,2234.8z"/>
	</g>
	<g>
		<path d="M2813.4,2247.2l98,55.8l-148.8,143.3l-85.9-95.7L2813.4,2247.2 M2813,2240l-145,109.7l94.4,105.2l159-153.2L2813,2240
			L2813,2240z"/>
	</g>
	<g>
		<polygon points="2735.9,2304 2869.2,2279.3 2795.8,2416.4 		"/>
		<path d="M2863.7,2283.4l-67.8,126.6l-55.4-103.8L2863.7,2283.4 M2874.8,2275.2l-143.6,26.6l64.5,120.9L2874.8,2275.2
			L2874.8,2275.2z"/>
	</g>
	<polyline class="st12" points="2602,2462.9 2527,2543 2602.2,2549.8 	"/>
	<polygon class="st13" points="2158.5,2633.4 3022.4,2633.4 3008.7,2798.6 2137.4,2810.2 	"/>
	<polygon class="st13" points="2971.5,2655.5 2180.8,2662.5 2165.9,2780 2980.2,2770.6 	"/>
	<polygon class="st13" points="2952.9,2677.6 2214,2677.6 2203.2,2756.7 2944.7,2756.7 	"/>
	<polygon class="st13" points="2932.8,2696.2 2239.2,2696.2 2231.7,2738.1 2922.7,2738.1 	"/>
	<path class="st14" d="M2904.5,2717.7"/>
</g>
</svg>
