<?xml version="1.0" encoding="utf-8"?>
<!-- Generator: Adobe Illustrator 22.1.0, SVG Export Plug-In . SVG Version: 6.00 Build 0)  -->
<svg version="1.1" id="Layer_1" xmlns="http://www.w3.org/2000/svg" xmlns:xlink="http://www.w3.org/1999/xlink" x="0px" y="0px"
	 viewBox="0 0 1179.4 450" style="enable-background:new 0 0 1179.4 450;" xml:space="preserve">
<style type="text/css">
	.st0{fill:#FFFFFF;stroke:#000000;stroke-width:6;stroke-miterlimit:10;}
	.st1{fill:#FFFFFF;}
</style>
<polygon class="st0" points="471.9,78.9 556.9,148.2 535.8,267.1 433.7,346.8 276.2,346.8 214.6,224.8 307.1,93.3 "/>
<g>
	<polygon class="st1" points="239.9,267.3 275.3,144.2 406.6,86.6 538.1,138 484.7,302.6 319.4,343.4 	"/>
	<path d="M406.7,89.8l127.7,49.9l-52,160.4l-162.1,40l-77-73.7l34.5-120.1L406.7,89.8 M406.5,83.3L272.8,142l-36.2,126.2l82,78.5
		l168.5-41.6l54.8-168.9L406.5,83.3L406.5,83.3z"/>
</g>
<g>
	<polygon class="st1" points="250.5,234 338.3,116.9 470,112 510.4,221.3 393.8,324.4 	"/>
	<path d="M467.9,115.1l39,105.3L393.5,320.6l-138.6-87.4l84.9-113.3L467.9,115.1 M472.1,108.9l-135.3,5l-90.6,120.8l147.9,93.3
		L514,222.2L472.1,108.9L472.1,108.9z"/>
</g>
<g>
	<polygon class="st1" points="306.2,264.8 300.7,169.3 489.2,169.3 460.2,264.8 	"/>
	<path d="M485.2,172.3L458,261.7H309l-5.1-89.5H485.2 M493.3,166.3H297.5l5.8,101.5h159.1L493.3,166.3L493.3,166.3z"/>
</g>
<g>
	<polygon points="395.3,170.2 464.8,233 310.8,241.6 	"/>
	<path d="M395.3,174.2l62.2,56.2l-137.9,7.7L395.3,174.2 M395.4,166.3l-93.4,78.8l170.1-9.5L395.4,166.3L395.4,166.3z"/>
</g>
<g>
	<polygon class="st1" points="628.4,296.6 651,184.8 724.8,90.9 866,81.9 947,138 964.2,215.1 923.1,308.7 777.5,370.5 	"/>
	<path d="M865.1,85l79.2,54.8l16.7,75l-40.2,91.6l-143.2,60.8l-145.8-72.3l22-108.8l72.5-92.3L865.1,85 M866.8,78.9L723.3,88
		l-75.1,95.6L625,298.2l152.4,75.5L925.3,311l42-95.6l-17.7-79.2L866.8,78.9L866.8,78.9z"/>
</g>
<g>
	<polygon class="st1" points="698.8,331.1 640.5,238.6 687,139.3 803.3,86.2 952.1,163.6 938.3,273.4 836.2,345.4 	"/>
	<path d="M803.2,89.6l145.7,75.8l-13.4,106.4l-100.1,70.5l-134.9-14l-56.6-89.9l45.4-96.7L803.2,89.6 M803.4,82.9l-118.7,54.2
		l-47.7,101.7l60,95.1l140,14.6l104.1-73.4L955.4,162L803.4,82.9L803.4,82.9z"/>
</g>
<g>
	<polygon class="st1" points="675.2,292.8 663.8,189.5 739.1,115.9 879.1,126 941.2,219.5 781.4,339.3 	"/>
	<path d="M740.2,119l137.2,10l59.7,89.9L781,335.8l-103-45.1l-11-100.1L740.2,119 M738,112.8l-77.3,75.6l11.7,106.5l109.4,47.8
		l163.5-122.5l-64.5-97.1L738,112.8L738,112.8z"/>
</g>
<g>
	<polygon class="st1" points="669.4,228.2 810.2,121.6 913.4,180.4 759.5,328.6 	"/>
	<path d="M810.4,125.2l98,55.8L759.7,324.3l-85.9-95.7L810.4,125.2 M810,118L665,227.7l94.4,105.2l159-153.2L810,118L810,118z"/>
</g>
<g>
	<polygon points="732.9,182 866.2,157.3 792.8,294.4 	"/>
	<path d="M860.7,161.4L792.8,288l-55.4-103.8L860.7,161.4 M871.8,153.2l-143.6,26.6l64.5,120.9L871.8,153.2L871.8,153.2z"/>
</g>
</svg>
