<?xml version="1.0" encoding="utf-8"?>
<!-- Generator: Adobe Illustrator 22.1.0, SVG Export Plug-In . SVG Version: 6.00 Build 0)  -->
<svg version="1.1" id="Layer_1" xmlns="http://www.w3.org/2000/svg" xmlns:xlink="http://www.w3.org/1999/xlink" x="0px" y="0px"
	 viewBox="0 0 1179.4 450" style="enable-background:new 0 0 1179.4 450;" xml:space="preserve">
<style type="text/css">
	.st0{fill:none;stroke:#000000;stroke-width:10;stroke-linecap:round;stroke-miterlimit:10;}
	.st1{fill:none;stroke:#000000;stroke-width:10;stroke-linecap:round;stroke-linejoin:round;stroke-miterlimit:10;}
	.st2{fill:none;}
</style>
<polygon points="156,48 296.5,39 276.5,101 437.5,70 414.5,124 520.5,81.5 503.5,140 641,61 634.5,133 778.5,39 767,109 914.5,15 
	914.5,70 1018.5,5 1018.5,144 1005.8,176.3 974.5,167 938.4,148.7 870.5,130.8 837.2,121.7 767,109 729,123 717.8,149 729.8,171.7 
	740.7,181 800.6,191.7 840,204.6 861.5,232.7 846.5,246.1 793.2,294 786.5,230 641,301 636.5,246.1 536.5,308 527.5,246.1 
	418.5,287 420.5,240 238,246.1 283.5,184 106,137 221.5,119 "/>
<polygon class="st0" points="156,48 296.5,39 276.5,101 437.5,70 414.5,124 520.5,81.5 503.5,140 641,61 634.5,133 778.5,39 
	767,109 914.5,15 914.5,70 1018.5,5 1018.5,144 1005.8,176.3 974.5,167 938.4,148.7 870.5,130.8 837.2,121.7 767,109 729,123 
	717.8,149 729.8,171.7 740.7,181 800.6,191.7 840,204.6 861.5,232.7 846.5,246.1 793.2,294 786.5,230 641,301 636.5,246.1 
	536.5,308 527.5,246.1 418.5,287 420.5,240 238,246.1 283.5,184 106,137 221.5,119 "/>
<path class="st1" d="M909.1,235.3c6.1,4.9,8,9.4,8.7,12.7c2.1,10.5-7.4,16.7-8,32c-0.3,6.5,1.2,10.8,2,14c2.6,11.2,0.9,30.1-18.7,64
	"/>
<path class="st0" d="M835.5,441c-5.8-11.6-12.1-28.8-5-42c4.7-8.7,13.1-11.9,17-14c37.7-20.4,46.4-156.4-7-187
	c-26-14.9-50.2,4.5-92-19c-8.8-4.9-27.1-15.2-27-29c0.1-16.4,26.1-29.1,42-34c26.9-8.3,47.4-1.6,93,11c100.2,27.8,106.9,24.7,119,39
	c21.7,25.6,20.1,58.8,18,102c-1.5,30.9-4,81.4-40,126c-11.4,14.2-37.8,46.8-80,51C857.6,446.6,844.2,443.7,835.5,441z"/>
<line class="st2" x1="1073.4" y1="-1191" x2="1073.4" y2="1929"/>
</svg>
