<?xml version="1.0" encoding="utf-8"?>
<!-- Generator: Adobe Illustrator 22.1.0, SVG Export Plug-In . SVG Version: 6.00 Build 0)  -->
<svg version="1.1" id="Layer_1" xmlns="http://www.w3.org/2000/svg" xmlns:xlink="http://www.w3.org/1999/xlink" x="0px" y="0px"
	 viewBox="0 0 1179.4 450" style="enable-background:new 0 0 1179.4 450;" xml:space="preserve">
<style type="text/css">
	.st0{fill:none;stroke:#000000;stroke-width:3;stroke-miterlimit:10;}
</style>
<path class="st0" d="M207.5,163.8l66.5,3.7l-5-63.5h60.5v63.5l43-8V109H422v53.5l73.5,0.5c0,0,1.3,29,0,29.5S417,198,417,198l5-35.5
	l-49.5-3v25l-43-0.5v-16.5H274l2,19.5l-66.5,1.5l-1.5,43h69.5L276,187l53.5-3l-0.5,43.5l-51.5,4l5,56.5h52l-5.5-60.5l51,4l1,52
	l-46.5,4.5l-8,59h59l-4.5-63.5h52l-4-50l-49-2l-7.5-47L417,198l12,35.5l67.1-2.5v55l-63.1-2.5l0.8,32l0.7,28.5l61.6,0.5V286
	l-0.6-93.5l3-88.5l-76.5,5h-49.5l-43-5H269h-66.5l7,84.5l-1.5,43l11,53.5l1.5,52.5l63.5,3l42.5,6.5l8-59h-52l1.5,52.5l-1.5-52.5
	l-63.5-3l-11-53.5l1.5-43L207.5,163.8z"/>
<line class="st0" x1="385.5" y1="347" x2="434.5" y2="344"/>
<polygon points="379.9,228.8 431.5,230.9 435.7,283.5 381,283.5 "/>
<polygon class="st0" points="379.9,228.8 431.5,230.9 435.7,283.5 381,283.5 "/>
<polygon points="372.1,179.3 379.9,228.8 326.3,224.5 326.8,178.8 "/>
<polygon class="st0" points="372.1,179.3 379.9,228.8 326.3,224.5 326.8,178.8 "/>
<polygon points="422,162.5 417,198 372.5,184.5 372.5,159.5 "/>
<polygon class="st0" points="422,162.5 417,198 372.5,184.5 372.5,159.5 "/>
<polygon points="329.5,167.5 274,167.5 276,187 329.5,184 "/>
<polygon class="st0" points="329.5,167.5 274,167.5 276,187 329.5,184 "/>
<polygon points="329,227.5 334.5,288 282.5,288 277.5,231.5 "/>
<polygon class="st0" points="329,227.5 334.5,288 282.5,288 277.5,231.5 "/>
<polygon points="884.3,228.8 889.7,272.5 843,274 837.2,232 "/>
<polyline class="st0" points="884.3,228.8 889.7,272.5 843,274 837.2,232 884.3,228.8 "/>
<polygon points="873,189.5 833,194 833,154.8 875.3,154.8 "/>
<polygon class="st0" points="873,189.5 833,194 833,154.8 875.3,154.8 "/>
<polygon points="791.5,196.8 790,151.3 733.5,151.3 731.8,202 "/>
<polygon class="st0" points="791.5,196.8 790,151.3 733.5,151.3 731.8,202 "/>
<polygon points="737.5,235.5 748.3,276.8 804,274 800,235.5 "/>
<polygon class="st0" points="737.5,235.5 748.3,276.8 804,274 800,235.5 "/>
<polygon points="791.5,196.8 800,235.5 837.3,232 833,194 "/>
<polygon class="st0" points="791.5,196.8 800,235.5 837.3,232 833,194 "/>
<polygon class="st0" points="935.3,94.3 876.7,97 831.3,104 789.7,104 729.3,114 677.7,110.3 675.7,153 733.5,153 729.3,114 
	789.7,104 789.7,151.3 833,154.8 831.3,104 876.7,97 876.7,154.8 944,146.7 949,186.7 873,186.7 884.3,228.8 951.7,214.8 954,271.3 
	891.1,274 896.7,341.3 975.3,331.3 954,271.3 891.1,274 843,274 854.1,343.3 896.7,341.3 854.1,343.3 810,347 804,274 843,274 
	804,274 748.3,274 756.7,348.7 810,347 756.7,348.7 695.3,354.3 691.3,285.7 748.3,274 737.5,235.5 689,237.7 691.3,285.7 
	689,237.7 683.3,202 731.8,202 737.5,235.5 731.8,202 683.3,202 675.7,153 677.7,110.3 729.3,114 789.7,104 831.3,104 876.7,97 "/>
<polyline class="st0" points="944,146.7 935.3,94.3 949,186.7 951.7,214.7 "/>
</svg>
