<?xml version="1.0" encoding="utf-8"?>
<!-- Generator: Adobe Illustrator 22.1.0, SVG Export Plug-In . SVG Version: 6.00 Build 0)  -->
<svg version="1.1" id="Layer_1" xmlns="http://www.w3.org/2000/svg" xmlns:xlink="http://www.w3.org/1999/xlink" x="0px" y="0px"
	 viewBox="0 0 1179.4 450" style="enable-background:new 0 0 1179.4 450;" xml:space="preserve">
<style type="text/css">
	.st0{fill:none;stroke:#000000;stroke-width:10;stroke-miterlimit:10;}
</style>
<path class="st0" d="M332,270c-9.6-26.4-32.2-24.9-43-53c-1.6-4.1-10.1-26.3,0-42c7-10.8,16.1-8.1,48-22c24.6-10.7,37.4-16.5,45-30
	c6-10.7,2.5-15.1,10-27c2.5-4,11.5-18,29-24c18.2-6.3,41.4-2.4,56,13c0.9,1,14.8,16,14,36c-0.3,7.6-2.4,7.5-3,15
	c-1.3,16.7,7.3,37.7,23,46c12,6.4,17.9,0,27,7c10.1,7.7,14.6,24.5,10,37c-5.9,15.9-21.7,11.2-31,28c-9.7,17.5-3.9,42.9,5,58
	c3.5,6,5,6,7,11c5.7,14.4,1.8,34.6-10,46c-16.7,16.2-47,13-65,2c-18-11-18-26.1-38-32c-2.3-0.7-19-5.4-28,3c-5.4,5-5.6,12.5-6,17
	c-1.9,22.6-13.9,50.4-29,61c-16.6,11.7-48.7,10.8-65-9c-15.9-19.4-10-48.6,2-64c12.6-16.2,27-11.1,38-28
	C337.4,304.6,337.3,284.7,332,270z"/>
<path class="st0" d="M652,231c-16.3-19.5-18.4-31.8-19-36c-0.2-1.4-3.5-28.9,11-38c11.4-7.2,21.2,4.8,39-1c12.5-4.1,26.6-16.1,27-29
	c0.5-14.8-17.5-18.1-25-43c-1.7-5.8-4.5-14.9-2-25c5.8-23.8,36.5-37.7,61-38c4.4-0.1,31.4-0.4,42,16c5.1,7.9,1.5,12.1,7,26
	c2.9,7.4,8.9,22.5,22,29c6,3,8.9,1.9,45,1c17.7-0.4,21.9-0.3,26,3c8.3,6.6,10.9,21.5,6,32c-5.7,12-17,8.9-25,21
	c-9.1,13.8-6.9,36.6,4,45c8,6.2,15.3,0.4,23,7c9,7.7,9,24,5,35c-7.6,20.8-31,25.8-32,26c-14.8,2.9-18-5-33-3
	c-18,2.4-37.1,17.1-40,34c-2.2,13.1,6.9,18.1,4,31c-3,13.6-16.2,21.4-24,26c-27.1,16-74.2,23.9-89,2c-10.5-15.5-1-40.6,0-43
	c6.9-17.4,16.9-17.9,17-28C702.2,265.5,678.4,262.6,652,231z"/>
<polygon points="375,223 414.1,193.4 464,248.4 410,274 "/>
<polygon class="st0" points="375,223 414.1,193.4 464,248.4 410,274 "/>
<polygon points="734,197.3 773,150 811,186 777,219 "/>
<polygon class="st0" points="734,197.3 773,150 811,186 777,219 "/>
</svg>
