<?xml version="1.0" encoding="utf-8"?>
<!-- Generator: Adobe Illustrator 22.1.0, SVG Export Plug-In . SVG Version: 6.00 Build 0)  -->
<svg version="1.1" id="Layer_1" xmlns="http://www.w3.org/2000/svg" xmlns:xlink="http://www.w3.org/1999/xlink" x="0px" y="0px"
	 viewBox="0 0 1179.4 450" style="enable-background:new 0 0 1179.4 450;" xml:space="preserve">
<style type="text/css">
	.st0{fill:none;stroke:#231F20;stroke-width:6;stroke-miterlimit:10;}
	.st1{fill:#231F20;}
	.st2{fill:none;stroke:#231F20;stroke-miterlimit:10;}
</style>
<polygon class="st0" points="503.7,337.7 417.4,281.1 336.3,351.5 359.8,233.5 298.8,159 369.3,164.5 403.8,95 447,158.5 
	522.2,163.6 472.6,214.2 "/>
<polygon class="st0" points="729.3,319 736.8,246 681.3,175.5 739.3,161.5 770.8,101.2 802.9,153.2 878.8,138.5 824.8,221 
	846.3,306 786.6,265.9 "/>
<polygon class="st1" points="369.3,164.5 447,158.5 472.6,214.2 417.4,281.1 359.8,233.5 "/>
<polygon class="st2" points="369.3,164.5 447,158.5 472.6,214.2 417.4,281.1 359.8,233.5 "/>
<polygon class="st1" points="739.3,161.5 802.9,153.2 824.8,221 786.6,265.9 736.8,246 "/>
<polygon class="st2" points="739.3,161.5 802.9,153.2 824.8,221 786.6,265.9 736.8,246 "/>
</svg>
