<?xml version="1.0" encoding="utf-8"?>
<!-- Generator: Adobe Illustrator 22.1.0, SVG Export Plug-In . SVG Version: 6.00 Build 0)  -->
<svg version="1.1" id="Layer_1" xmlns="http://www.w3.org/2000/svg" xmlns:xlink="http://www.w3.org/1999/xlink" x="0px" y="0px"
	 viewBox="0 0 864 450" style="enable-background:new 0 0 864 450;" xml:space="preserve">
<style type="text/css">
	.st0{fill:none;stroke:#000000;stroke-width:5;stroke-miterlimit:10;}
</style>
<path class="st0" d="M108,142c6.5-12.7,31.8-41.7,67.3-46.3c31.1-4,55.7,8.9,88.7,26.7c58.5,31.6,68.1,58.3,114,70.7
	c24,6.5,43.5,5.1,59.3,4c135.9-9.8,194.7-102.7,273.3-106c26.1-1.1,47.7,27.4,52.7,50c9.5,43.6-48.9,89.1-79.3,112.7
	C544.8,361.9,381.8,359.6,338,358.3c-93.3-2.6-136.1-25.7-154-36.7c-22.4-13.8-79.8-49.1-89.3-113.3C90.2,177.9,102.1,156.6,108,142
	z"/>
<path d="M183,189c16.8-17.8,50.7-18.5,75-7c11.7,5.6,18.8,12.9,21.5,15.5c42.8,42.1,132.5,45.1,144,45.5c20.7,0.7,97-6.5,157-40
	c12.6-7.1,30.3-18.6,46.3-27.6c16-8.9,30.3-15.2,42.5-20.2c2.7-1.1,7.3-1.2,13.3,0.8c12.2,4,20.4,21.4,17,34.5
	c-3.4,13.2-18.3,19-25,23c-117,70-190.8,84.5-239.5,89c-57.4,5.3-98-0.2-117-3.5c0,0-85.3-14.6-125.5-58.5c-6.4-7-21-22.9-17-39
	C177,195.4,180.6,191.5,183,189"/>
<path class="st0" d="M183,189c16.8-17.8,50.7-18.5,75-7c11.7,5.6,18.8,12.9,21.5,15.5c42.8,42.1,132.5,45.1,144,45.5
	c20.7,0.7,97-6.5,157-40c12.6-7.1,30.3-18.6,46.3-27.6c16-8.9,30.3-15.2,42.5-20.2c2.7-1.1,7.3-1.2,13.3,0.8
	c12.2,4,20.4,21.4,17,34.5c-3.4,13.2-18.3,19-25,23c-117,70-190.8,84.5-239.5,89c-57.4,5.3-98-0.2-117-3.5c0,0-85.3-14.6-125.5-58.5
	c-6.4-7-21-22.9-17-39C177,195.4,180.6,191.5,183,189z"/>
</svg>
