<?xml version="1.0" encoding="utf-8"?>
<!-- Generator: Adobe Illustrator 22.1.0, SVG Export Plug-In . SVG Version: 6.00 Build 0)  -->
<svg version="1.1" id="Layer_1" xmlns="http://www.w3.org/2000/svg" xmlns:xlink="http://www.w3.org/1999/xlink" x="0px" y="0px"
	 viewBox="0 0 864 450" style="enable-background:new 0 0 864 450;" xml:space="preserve">
<style type="text/css">
	.st0{fill:none;stroke:#000000;stroke-width:3;stroke-miterlimit:10;}
</style>
<polygon class="st0" points="493,346.5 617,339.5 538,243.5 "/>
<polygon class="st0" points="742,336.5 670,243.5 617,339.5 "/>
<polygon class="st0" points="600,112.5 538,243.5 604,243.5 670,243.5 "/>
<polygon points="604.3,246 642.2,286.5 580.1,289.9 "/>
<path d="M604.6,248.6l34.3,36.6l-56.2,3.1L604.6,248.6z M604,243.5l-26.5,48l68-3.7L604,243.5z"/>
<path d="M281.4,108l57.8,127.7l0.1,0.2l0.1,0.2l56.5,86l-128.6,3.8l-143.5,4.8l65-91.9L281.4,108z M282,102l-95.5,135.1L118,334
	l149.5-5l134-4L342,234.5L282,102z"/>
<path d="M336,237.6l-63.7,86.6l-79-84.2L336,237.6z M342,234.5l-155.5,2.6l86.1,91.7L342,234.5z"/>
<polygon points="268.3,238.4 304.4,280.6 241.9,291.4 "/>
<path d="M268.7,241.1l32.9,38.5l-57,9.8L268.7,241.1z M268,235.8l-28.8,57.6l68-11.7L268,235.8z"/>
</svg>
