<?xml version="1.0" encoding="utf-8"?>
<!-- Generator: Adobe Illustrator 22.1.0, SVG Export Plug-In . SVG Version: 6.00 Build 0)  -->
<svg version="1.1" id="Layer_1" xmlns="http://www.w3.org/2000/svg" xmlns:xlink="http://www.w3.org/1999/xlink" x="0px" y="0px"
	 viewBox="0 0 864 936" style="enable-background:new 0 0 864 936;" xml:space="preserve">
<style type="text/css">
	.st0{fill:none;stroke:#000000;stroke-width:3;stroke-miterlimit:10;}
</style>
<polygon class="st0" points="493,590 617,583 538,487 "/>
<polygon class="st0" points="742,580 670,487 617,583 "/>
<polygon class="st0" points="600,356 538,487 604,487 670,487 "/>
<polygon points="604.3,489.5 642.2,530 580.1,533.4 "/>
<path d="M604.6,492.1l34.3,36.6l-56.2,3.1L604.6,492.1z M604,487l-26.5,48l68-3.7L604,487z"/>
<path d="M281.4,351.5l57.8,127.7l0.1,0.2l0.1,0.2l56.5,86l-128.6,3.8l-143.5,4.8l65-91.9L281.4,351.5z M282,345.5l-95.5,135.1
	L118,577.5l149.5-5l134-4L342,478L282,345.5z"/>
<path d="M336,481.1l-63.7,86.6l-79-84.2L336,481.1z M342,478l-155.5,2.6l86.1,91.7L342,478z"/>
<polygon points="268.3,481.9 304.4,524.1 241.9,534.9 "/>
<path d="M268.7,484.6l32.9,38.5l-57,9.8L268.7,484.6z M268,479.3l-28.8,57.6l68-11.7L268,479.3z"/>
</svg>
